<svg width="142" height="56" viewBox="0 0 142 56" fill="none" xmlns="http://www.w3.org/2000/svg">
<path d="M12.3453 12.2644C18.7572 5.7491 29.3143 3.78716 38.0244 8.19364C48.2247 13.345 52.3593 24.9382 49.0957 34.8948C49.0012 34.8108 48.9068 34.7374 48.8333 34.664C47.2277 33.0588 45.6221 31.4535 44.006 29.8483C43.7752 29.628 43.6912 29.3867 43.7017 29.0824C43.7122 27.9074 43.7227 26.7323 43.6912 25.5572C43.6807 25.3264 43.5758 25.0327 43.4079 24.8648C39.1997 20.6262 34.9706 16.4086 30.7415 12.1909C30.4686 11.9182 30.3637 11.7083 30.5001 11.2782C30.9409 9.92476 30.0489 8.50838 28.6637 8.07823C26.8901 7.52217 24.9487 9.26379 25.4419 11.2047C25.8302 12.6945 27.3624 13.5444 28.842 13.0408C29.0834 12.9568 29.2198 12.9988 29.3877 13.1667C33.5014 17.2794 37.6151 21.3921 41.7183 25.5258C41.8757 25.6831 41.9807 25.9559 41.9912 26.1762C42.0122 27.3828 41.9912 28.5788 42.0122 29.7854C42.0227 30.0162 42.1276 30.3099 42.2955 30.4778C44.6462 32.8489 47.0073 35.2095 49.379 37.5701C49.463 37.6541 49.5574 37.7275 49.7043 37.8534C49.8303 37.5701 49.9562 37.3288 50.0611 37.0875C50.7223 35.4718 51.1945 33.8036 51.4988 32.083C51.8766 29.9218 51.8766 27.75 51.7087 25.5782C51.5408 23.5009 51.0371 21.497 50.3025 19.556C49.3685 17.0905 48.0568 14.8348 46.3567 12.789C44.9295 11.0788 43.3239 9.56804 41.4875 8.33003C40.5325 7.67955 39.5355 7.07104 38.4861 6.58842C37.0275 5.90647 35.5478 5.23502 33.9632 4.90978C32.7563 4.65798 31.5285 4.44814 30.3007 4.30126C29.3038 4.18586 28.2964 4.14388 27.2994 4.16487C25.7673 4.19634 24.2561 4.40617 22.7555 4.73141C20.8455 5.15107 19.0405 5.79106 17.288 6.65137C15.2732 7.64808 13.4472 8.90707 11.7996 10.4388C11.2749 10.9215 10.7922 11.446 10.2885 11.9496C10.0366 12.2014 10.0576 12.3798 10.3094 12.6421C13.6361 15.9469 16.9417 19.2728 20.2684 22.5776C20.5517 22.8609 20.6776 23.1442 20.6671 23.5533C20.6461 24.6759 20.6671 25.7986 20.6566 26.9212C20.6566 27.2359 20.7406 27.4667 20.9715 27.6975C22.3987 29.1034 23.8049 30.5303 25.2321 31.9466C25.4839 32.1984 25.5889 32.4083 25.4525 32.7964C25.0222 34.0764 25.7673 35.5033 27.0581 35.9649C28.3908 36.4475 29.8075 35.839 30.3532 34.5695C30.8254 33.4679 30.5841 32.4817 29.7865 31.6634C29.0204 30.887 28.0655 30.7611 27.0371 31.0758C26.9216 31.1073 26.7117 31.0863 26.6278 31.0024C25.2531 29.649 23.8888 28.2851 22.5351 26.9107C22.4091 26.7848 22.3567 26.5539 22.3462 26.3756C22.3252 25.2005 22.3252 24.0255 22.3462 22.8504C22.3567 22.4727 22.2308 22.2104 21.9684 21.9481C18.8517 18.8531 15.7454 15.7371 12.6391 12.6316C12.5657 12.5162 12.4712 12.4008 12.3453 12.2644ZM28.947 33.5099C28.947 34.0659 28.5167 34.5171 27.992 34.4856C27.5723 34.4646 27.0371 34.0974 27.0581 33.5099C27.079 32.9853 27.4778 32.5551 28.0025 32.5551C28.5377 32.5656 28.947 32.9748 28.947 33.5099ZM27.992 11.53C27.4253 11.53 27.0581 11.1523 27.0581 10.5857C27.0581 10.0402 27.4673 9.64148 28.013 9.65197C28.5482 9.66246 28.9365 10.0507 28.9365 10.5857C28.947 11.1313 28.5482 11.53 27.992 11.53Z" fill="#13446B"/>
<path d="M6.22747 18.1712C5.93364 18.9266 5.65029 19.6085 5.41942 20.301C4.95768 21.6859 4.62187 23.1022 4.40149 24.5605C4.10766 26.5225 4.11816 28.4844 4.27557 30.4358C4.49595 33.1217 5.24103 35.6921 6.37439 38.1262C7.22441 39.9412 8.27382 41.6199 9.5541 43.1622C11.1387 45.0716 12.9647 46.7188 15.053 48.0617C16.816 49.1948 18.684 50.0866 20.6884 50.7056C22.189 51.1673 23.7107 51.4925 25.2743 51.6813C26.9009 51.8807 28.517 51.9226 30.1331 51.7653C33.6801 51.4086 37.0172 50.3804 40.1025 48.5653C42.2118 47.3168 44.0587 45.7641 45.7273 43.991C46.0106 43.6867 45.8112 43.5399 45.6223 43.351C42.4636 40.193 39.3259 37.0246 36.1357 33.8981C35.506 33.2791 35.1912 32.6915 35.2647 31.7997C35.3381 30.8765 35.2962 29.9532 35.2647 29.03C35.2542 28.7992 35.1492 28.5054 34.9813 28.3375C33.5751 26.9002 32.1584 25.4838 30.7312 24.0779C30.4479 23.7947 30.3534 23.5743 30.4898 23.1547C30.8991 21.9377 30.1016 20.4793 28.8948 19.9967C27.4361 19.4092 26.0508 20.4059 25.5786 21.4445C24.9909 22.714 25.6101 24.2983 26.9429 24.8858C27.541 25.1481 28.1707 25.1901 28.7898 24.9592C29.0941 24.8438 29.2725 24.9382 29.4824 25.1586C30.7522 26.449 32.043 27.708 33.3023 29.009C33.4702 29.1768 33.5856 29.4601 33.5856 29.7014C33.6171 30.8345 33.6066 31.9781 33.5961 33.1112C33.5856 33.5099 33.7116 33.8037 33.9949 34.0869C37.1116 37.1819 40.2179 40.2979 43.3242 43.4035C43.4186 43.4979 43.5026 43.5923 43.5865 43.6867C38.0351 49.7509 26.9324 52.762 17.3512 47.4952C6.30094 41.431 4.0447 29.1873 6.8991 21.1403C7.03552 21.2662 7.17194 21.3606 7.28737 21.476C8.851 23.0288 10.4041 24.592 11.9678 26.1553C12.1776 26.3651 12.2826 26.5854 12.2721 26.8897C12.2616 28.0752 12.2511 29.2713 12.2826 30.4568C12.2931 30.6876 12.398 30.9814 12.5659 31.1493C16.774 35.3774 20.9927 39.5845 25.2113 43.7917C25.4842 44.0644 25.6101 44.2743 25.4737 44.7044C25.0854 45.869 25.6941 47.1804 26.7959 47.747C27.8873 48.303 29.262 48.0093 30.0176 47.0545C30.8047 46.0683 30.7732 44.7569 30.0071 43.7602C29.304 42.8579 28.391 42.6481 27.3626 42.8789C26.8799 42.9838 26.5756 42.8579 26.2502 42.5327C22.8501 39.1124 19.4291 35.7131 16.029 32.3034C15.4308 31.7053 14.8221 31.1178 14.245 30.4988C14.0981 30.3309 13.9826 30.0686 13.9721 29.8483C13.9511 28.6628 13.9511 27.4667 13.9616 26.2812C13.9616 25.9874 13.8777 25.7566 13.6678 25.5468C11.2961 23.1861 8.92447 20.815 6.56329 18.4544C6.50033 18.381 6.40587 18.318 6.22747 18.1712ZM27.9713 44.5261C28.517 44.5261 28.9367 44.9352 28.9262 45.4493C28.9157 45.9634 28.496 46.4041 28.0132 46.3936C27.52 46.3831 27.0793 45.9529 27.0688 45.4598C27.0688 44.9457 27.478 44.5261 27.9713 44.5261ZM27.9503 21.6019C28.5484 21.6019 28.9367 22.0006 28.9262 22.5881C28.9157 23.0812 28.517 23.4275 27.9713 23.4275C27.4256 23.417 27.0583 23.0602 27.0583 22.5462C27.0688 22.0111 27.4571 21.6019 27.9503 21.6019Z" fill="#13446B"/>
<path d="M52.4014 41.6409C52.6112 41.3996 52.7896 41.1163 52.9366 40.8225C53.8286 39.0389 54.5631 37.1924 55.0669 35.262C55.8224 32.4082 56.1163 29.5021 55.9589 26.5539C55.8854 25.2425 55.665 23.931 55.4656 22.6301C55.3502 21.8747 55.2243 21.1193 55.0039 20.3954C54.6681 19.3147 54.2588 18.2446 53.8391 17.1954C52.8526 14.7404 51.4884 12.5057 49.8408 10.4388C48.5815 8.86508 47.1543 7.45921 45.5907 6.18972C43.6178 4.57401 41.435 3.29404 39.1053 2.27636C37.0905 1.40555 34.9916 0.807529 32.8194 0.419338C30.6051 0.0206566 28.3804 -0.0737572 26.1556 0.0521431C24.3821 0.157059 22.6191 0.461308 20.8876 0.912445C18.6943 1.47899 16.5955 2.30783 14.6121 3.37798C12.5448 4.49009 10.6558 5.854 8.94527 7.45921C6.9304 9.33721 5.21987 11.446 3.82415 13.8171C2.92166 15.3594 2.13459 16.9541 1.59939 18.6643C1.16913 20.0491 0.759862 21.455 0.466027 22.8714C0.224663 24.0464 0.0882515 25.2425 0.035781 26.4385C-0.0796542 28.925 0.0777503 31.3906 0.602456 33.8351C1.37902 37.4127 2.76425 40.7071 4.82109 43.7392C6.63657 46.425 8.86132 48.7122 11.4639 50.6322C13.3948 52.0485 15.4936 53.1711 17.7288 54.0524C19.5653 54.7763 21.4542 55.3114 23.3957 55.6157C25.4315 55.9409 27.4884 56.1193 29.5452 55.9094C30.9619 55.7626 32.3891 55.6786 33.7848 55.3849C35.2645 55.0701 36.7127 54.598 38.1294 54.0734C39.3467 53.6223 40.522 53.0347 41.6764 52.4262C43.4079 51.5135 44.982 50.3489 46.4512 49.0584C48.2772 47.4637 49.8408 45.6591 51.226 43.6867C51.268 43.6343 51.2995 43.5713 51.3205 43.5188C51.331 43.4874 51.3205 43.4454 51.3205 43.33L45.1919 37.056C43.3555 35.2305 41.5295 33.3945 39.693 31.5794C39.4726 31.3591 39.3782 31.1283 39.3782 30.8135C39.3887 29.6489 39.3782 28.4844 39.3887 27.3303C39.3887 27.0051 39.2942 26.7638 39.0529 26.533C36.2509 23.7422 33.47 20.9514 30.6576 18.1606C30.3742 17.8774 30.2798 17.6361 30.4057 17.2269C30.9409 15.4853 29.3983 13.7542 27.6038 14.0165C26.1241 14.2368 25.484 15.3594 25.358 16.3771C25.2321 17.4472 26.0192 18.6433 27.1316 18.958C27.6458 19.1049 28.2544 19 28.8106 18.9475C29.0415 18.9265 29.1884 18.8951 29.3668 19.0734C32.0743 21.7907 34.7818 24.4871 37.4787 27.2149C37.6467 27.3933 37.7726 27.687 37.7831 27.9388C37.8146 29.0719 37.8041 30.2155 37.7936 31.3486C37.7831 31.7368 37.8985 32.0201 38.1819 32.2928C41.7918 35.8915 45.3913 39.4901 49.0013 43.0992C49.4105 43.5084 49.421 43.5084 49.0747 43.9595C47.0809 46.5509 44.7302 48.7227 41.9492 50.4643C39.8399 51.7862 37.5942 52.7829 35.212 53.4544C31.9379 54.3777 28.6007 54.6504 25.2111 54.2937C22.5876 54.0209 20.069 53.381 17.6449 52.3738C15.9553 51.6708 14.3707 50.7895 12.8701 49.7404C10.2046 47.8939 7.95882 45.6277 6.11186 42.9628C4.90504 41.2107 3.8976 39.3327 3.20499 37.3078C2.78523 36.0908 2.36547 34.8528 2.11361 33.5938C1.83027 32.1355 1.66236 30.6457 1.55742 29.1663C1.44199 27.4562 1.52594 25.7356 1.78829 24.0359C1.87225 23.5009 1.97719 22.9763 2.08213 22.4412C2.38646 20.9304 2.8482 19.4511 3.45685 18.0452C4.02354 16.7338 4.72664 15.4748 5.37728 14.1948C5.42975 14.0899 5.52419 14.0165 5.62913 13.8801C5.75506 13.9955 5.8705 14.1004 5.98594 14.2053C9.37553 17.5941 12.7651 20.9934 16.1652 24.3717C16.4171 24.6235 16.5325 24.8858 16.5325 25.2425C16.5115 26.3966 16.5325 27.5401 16.522 28.6942C16.5115 29.03 16.627 29.2608 16.8578 29.4916C19.6493 32.2719 22.4197 35.0626 25.2216 37.8219C25.5365 38.1367 25.6309 38.3885 25.4735 38.8186C25.1587 39.7314 25.6099 40.9379 26.418 41.5254C27.3205 42.1864 28.5063 42.1969 29.4193 41.5569C30.2063 41.0009 30.5946 40.2035 30.5107 39.2698C30.4267 38.2311 29.86 37.4547 28.8316 37.0665C28.2544 36.8462 27.6982 36.8252 27.1316 37.0455C26.8587 37.1504 26.6698 37.098 26.4599 36.8882C23.7525 34.1708 21.045 31.4745 18.3375 28.7467C18.1906 28.5998 18.0961 28.327 18.0961 28.1172C18.0751 26.9316 18.0751 25.7356 18.0856 24.55C18.0856 24.2353 17.9912 24.0045 17.7603 23.7841C14.1189 20.154 10.4879 16.524 6.85695 12.8939C6.46867 12.5057 6.46867 12.5057 6.80448 12.065C8.25266 10.1136 9.96319 8.41394 11.8941 6.94512C13.783 5.50777 15.8294 4.32223 18.0332 3.46191C19.4814 2.89537 20.9715 2.45472 22.5037 2.12947C24.2457 1.76227 26.0087 1.58391 27.7717 1.57342C29.1464 1.56293 30.5317 1.7308 31.9064 1.88817C33.8688 2.11899 35.7577 2.66455 37.5942 3.38847C39.7455 4.22779 41.7498 5.32941 43.6073 6.70382C45.937 8.43493 47.9414 10.4808 49.6099 12.8519C50.9742 14.7928 52.0551 16.8912 52.8316 19.1259C53.1465 20.0386 53.3248 21.0039 53.6082 21.9376C54.3743 24.5081 54.3952 27.152 54.3008 29.7853C54.2693 30.7925 54.0804 31.8102 53.8915 32.7964C53.6921 33.8246 53.4613 34.8633 53.136 35.86C52.7687 37.0141 52.2859 38.1262 51.8347 39.2488C51.6353 39.7419 51.3729 40.2245 51.1316 40.7281L52.4014 41.6409ZM28.9575 16.5659C28.9575 17.143 28.5692 17.5416 28.0131 17.5521C27.4569 17.5626 27.0056 17.1115 26.9951 16.5554C26.9951 15.9889 27.4254 15.5482 27.9816 15.5273C28.5168 15.5273 28.9575 15.9994 28.9575 16.5659ZM28.9575 39.5006C28.9575 40.0566 28.5483 40.4658 27.9921 40.4658C27.4359 40.4658 27.0266 40.0252 27.0371 39.4481C27.0476 38.8606 27.4149 38.4829 28.0026 38.4934C28.6007 38.4934 28.968 38.8711 28.9575 39.5006Z" fill="#0C84C7"/>
<path d="M47.3327 48.303C47.3327 48.303 52.9051 43.3195 54.8675 35.9859L53.4088 35.262C53.4088 35.262 51.8242 41.7668 46.2728 47.128L47.3327 48.303Z" fill="#0C84C7"/>
<path d="M76.2 24C76.0613 24 75.944 23.9573 75.848 23.872C75.7627 23.776 75.72 23.6587 75.72 23.52V11.504H76.68V23.52C76.68 23.6587 76.632 23.776 76.536 23.872C76.4507 23.9573 76.3387 24 76.2 24ZM71.672 12.368C71.544 12.368 71.4373 12.3307 71.352 12.256C71.2773 12.1707 71.24 12.064 71.24 11.936C71.24 11.808 71.2773 11.7067 71.352 11.632C71.4373 11.5467 71.544 11.504 71.672 11.504H80.728C80.856 11.504 80.9573 11.5467 81.032 11.632C81.1173 11.7067 81.16 11.808 81.16 11.936C81.16 12.064 81.1173 12.1707 81.032 12.256C80.9573 12.3307 80.856 12.368 80.728 12.368H71.672ZM83.4863 24C83.3476 24 83.2303 23.9573 83.1343 23.872C83.0489 23.776 83.0063 23.6587 83.0063 23.52V11.984C83.0063 11.8453 83.0489 11.7333 83.1343 11.648C83.2303 11.552 83.3476 11.504 83.4863 11.504H91.1823C91.3103 11.504 91.4223 11.552 91.5183 11.648C91.6143 11.7333 91.6623 11.8453 91.6623 11.984C91.6623 12.112 91.6143 12.224 91.5183 12.32C91.4223 12.416 91.3103 12.464 91.1823 12.464H83.9663V17.264H89.2623C89.4009 17.264 89.5129 17.312 89.5983 17.408C89.6943 17.4933 89.7423 17.6053 89.7423 17.744C89.7423 17.8827 89.6943 18 89.5983 18.096C89.5129 18.192 89.4009 18.24 89.2623 18.24H83.9663V23.04H91.1823C91.3103 23.04 91.4223 23.088 91.5183 23.184C91.6143 23.28 91.6623 23.392 91.6623 23.52C91.6623 23.6587 91.6143 23.776 91.5183 23.872C91.4223 23.9573 91.3103 24 91.1823 24H83.4863ZM99.591 24.16C98.7377 24.16 97.9323 23.9947 97.175 23.664C96.4283 23.3227 95.767 22.8587 95.191 22.272C94.615 21.6747 94.1617 20.992 93.831 20.224C93.5003 19.4453 93.335 18.6187 93.335 17.744C93.335 16.88 93.495 16.064 93.815 15.296C94.135 14.5173 94.5777 13.8347 95.143 13.248C95.719 12.6507 96.3857 12.1867 97.143 11.856C97.9003 11.5147 98.7163 11.344 99.591 11.344C100.327 11.344 101.026 11.4613 101.687 11.696C102.348 11.9307 102.967 12.288 103.543 12.768C103.639 12.8427 103.687 12.9493 103.687 13.088C103.687 13.216 103.644 13.3333 103.559 13.44C103.474 13.536 103.356 13.584 103.207 13.584C103.164 13.584 103.122 13.5787 103.079 13.568C103.036 13.5467 102.994 13.5253 102.951 13.504C102.908 13.472 102.86 13.4347 102.807 13.392C102.38 13.008 101.895 12.7307 101.351 12.56C100.807 12.3893 100.22 12.304 99.591 12.304C98.8763 12.304 98.199 12.4533 97.559 12.752C96.919 13.04 96.3537 13.44 95.863 13.952C95.3723 14.4533 94.9883 15.0293 94.711 15.68C94.4337 16.3307 94.295 17.0187 94.295 17.744C94.295 18.4907 94.4337 19.1947 94.711 19.856C94.9883 20.5173 95.367 21.0987 95.847 21.6C96.3377 22.1013 96.903 22.496 97.543 22.784C98.183 23.0613 98.8657 23.2 99.591 23.2C100.22 23.2 100.807 23.104 101.351 22.912C101.906 22.72 102.423 22.4267 102.903 22.032C102.988 21.9573 103.09 21.9307 103.207 21.952C103.324 21.9733 103.426 22.0267 103.511 22.112C103.596 22.1973 103.639 22.3093 103.639 22.448C103.639 22.512 103.634 22.5707 103.623 22.624C103.612 22.6773 103.58 22.7307 103.527 22.784C103.004 23.3067 102.396 23.6693 101.703 23.872C101.02 24.064 100.316 24.16 99.591 24.16ZM106.721 24C106.582 24 106.465 23.9573 106.369 23.872C106.283 23.776 106.241 23.6587 106.241 23.52V11.984C106.241 11.8453 106.283 11.7333 106.369 11.648C106.465 11.552 106.582 11.504 106.721 11.504C106.859 11.504 106.971 11.552 107.057 11.648C107.153 11.7333 107.201 11.8453 107.201 11.984V17.264H115.281V11.984C115.281 11.8453 115.323 11.7333 115.409 11.648C115.505 11.552 115.622 11.504 115.761 11.504C115.889 11.504 116.001 11.552 116.097 11.648C116.193 11.7333 116.241 11.8453 116.241 11.984V23.52C116.241 23.6587 116.193 23.776 116.097 23.872C116.001 23.9573 115.883 24 115.745 24C115.617 24 115.505 23.9573 115.409 23.872C115.323 23.776 115.281 23.6587 115.281 23.52V18.128H107.201V23.52C107.201 23.6587 107.153 23.776 107.057 23.872C106.971 23.9573 106.859 24 106.721 24ZM124.611 24C124.473 24 124.355 23.9573 124.259 23.872C124.174 23.776 124.131 23.6587 124.131 23.52V11.984C124.131 11.8453 124.174 11.7333 124.259 11.648C124.355 11.552 124.473 11.504 124.611 11.504C124.75 11.504 124.862 11.552 124.947 11.648C125.043 11.7333 125.091 11.8453 125.091 11.984V23.52C125.091 23.6587 125.043 23.776 124.947 23.872C124.862 23.9573 124.75 24 124.611 24ZM128.768 24C128.629 24 128.512 23.9573 128.416 23.872C128.33 23.776 128.288 23.6587 128.288 23.52V11.984C128.288 11.8453 128.33 11.7333 128.416 11.648C128.512 11.552 128.629 11.504 128.768 11.504C128.917 11.504 129.04 11.5573 129.136 11.664L137.264 22.24V11.984C137.264 11.8453 137.306 11.7333 137.392 11.648C137.488 11.552 137.605 11.504 137.744 11.504C137.872 11.504 137.984 11.552 138.08 11.648C138.176 11.7333 138.224 11.8453 138.224 11.984V23.52C138.224 23.6587 138.176 23.776 138.08 23.872C137.984 23.9573 137.872 24 137.744 24C137.669 24 137.6 23.9893 137.536 23.968C137.482 23.936 137.434 23.8987 137.392 23.856L129.248 13.264V23.52C129.248 23.6587 129.2 23.776 129.104 23.872C129.018 23.9573 128.906 24 128.768 24ZM73.08 50C72.9413 50 72.824 49.9573 72.728 49.872C72.6427 49.776 72.6 49.6587 72.6 49.52V37.984C72.6 37.8347 72.6427 37.7173 72.728 37.632C72.824 37.5467 72.9413 37.504 73.08 37.504H76.136C76.9147 37.504 77.6027 37.6693 78.2 38C78.808 38.32 79.2827 38.7627 79.624 39.328C79.9653 39.8933 80.136 40.5493 80.136 41.296C80.136 42.0213 79.9653 42.6667 79.624 43.232C79.2827 43.7973 78.808 44.24 78.2 44.56C77.6027 44.88 76.9147 45.04 76.136 45.04H73.56V49.52C73.56 49.6587 73.5173 49.776 73.432 49.872C73.3467 49.9573 73.2293 50 73.08 50ZM79.8 50C79.6827 50 79.592 49.9787 79.528 49.936C79.4747 49.8827 79.4213 49.8187 79.368 49.744L76.184 44.656L77.176 44.432L80.2 49.264C80.3387 49.4773 80.3653 49.6533 80.28 49.792C80.2053 49.9307 80.0453 50 79.8 50ZM73.56 44.08H76.136C76.7333 44.08 77.256 43.9627 77.704 43.728C78.1627 43.4827 78.52 43.152 78.776 42.736C79.0427 42.32 79.176 41.84 79.176 41.296C79.176 40.7413 79.0427 40.2507 78.776 39.824C78.52 39.3973 78.1627 39.0667 77.704 38.832C77.256 38.5867 76.7333 38.464 76.136 38.464H73.56V44.08ZM85.0224 50C84.905 50 84.7984 49.9573 84.7024 49.872C84.617 49.7867 84.5584 49.6907 84.5264 49.584L81.2144 38.224C81.161 38.032 81.177 37.8667 81.2624 37.728C81.3477 37.5787 81.481 37.504 81.6624 37.504C81.769 37.504 81.8597 37.5307 81.9344 37.584C82.0197 37.6267 82.0837 37.7227 82.1264 37.872L85.2144 48.56H84.8304L87.7744 38.288C87.7957 38.2027 87.849 38.1333 87.9344 38.08C88.0304 38.016 88.1264 37.984 88.2224 37.984C88.329 37.984 88.425 38.016 88.5104 38.08C88.5957 38.1333 88.6544 38.208 88.6864 38.304L91.6304 48.56H91.2464L94.3344 37.824C94.3877 37.6107 94.5424 37.504 94.7984 37.504C94.9797 37.504 95.1077 37.5733 95.1824 37.712C95.2677 37.8507 95.2837 38.0213 95.2304 38.224L91.9344 49.584C91.8917 49.7227 91.8224 49.8293 91.7264 49.904C91.641 49.968 91.545 50 91.4384 50C91.3104 50 91.2037 49.9627 91.1184 49.888C91.033 49.8027 90.9744 49.7013 90.9424 49.584L88.0304 39.28H88.4144L85.5344 49.584C85.4917 49.712 85.4224 49.8133 85.3264 49.888C85.241 49.9627 85.1397 50 85.0224 50ZM95.409 50C95.2063 50 95.0623 49.92 94.977 49.76C94.9023 49.6 94.9023 49.4507 94.977 49.312L99.825 37.84C99.9103 37.616 100.065 37.504 100.289 37.504C100.502 37.504 100.657 37.616 100.753 37.84L105.617 49.312C105.702 49.4613 105.697 49.616 105.601 49.776C105.505 49.9253 105.366 50 105.185 50C105.078 50 104.988 49.9787 104.913 49.936C104.849 49.8827 104.79 49.8027 104.737 49.696L100.033 38.48H100.545L95.857 49.696C95.8143 49.8027 95.7557 49.8827 95.681 49.936C95.6063 49.9787 95.5157 50 95.409 50ZM96.593 46.864L96.977 46H103.633L104.001 46.864H96.593ZM107.955 50C107.816 50 107.699 49.9573 107.603 49.872C107.518 49.776 107.475 49.6587 107.475 49.52V37.984C107.475 37.8453 107.518 37.7333 107.603 37.648C107.699 37.552 107.816 37.504 107.955 37.504C108.104 37.504 108.227 37.5573 108.323 37.664L116.451 48.24V37.984C116.451 37.8453 116.494 37.7333 116.579 37.648C116.675 37.552 116.792 37.504 116.931 37.504C117.059 37.504 117.171 37.552 117.267 37.648C117.363 37.7333 117.411 37.8453 117.411 37.984V49.52C117.411 49.6587 117.363 49.776 117.267 49.872C117.171 49.9573 117.059 50 116.931 50C116.856 50 116.787 49.9893 116.723 49.968C116.67 49.936 116.622 49.8987 116.579 49.856L108.435 39.264V49.52C108.435 49.6587 108.387 49.776 108.291 49.872C108.206 49.9573 108.094 50 107.955 50ZM121.096 50C120.957 50 120.84 49.9573 120.744 49.872C120.658 49.776 120.616 49.6587 120.616 49.52V37.984C120.616 37.8347 120.658 37.7173 120.744 37.632C120.84 37.5467 120.957 37.504 121.096 37.504H123.976C124.893 37.504 125.73 37.6587 126.488 37.968C127.256 38.2667 127.917 38.6987 128.472 39.264C129.037 39.8187 129.469 40.4747 129.768 41.232C130.077 41.9893 130.232 42.8267 130.232 43.744C130.232 44.6613 130.077 45.504 129.768 46.272C129.469 47.0293 129.037 47.6907 128.472 48.256C127.917 48.8107 127.256 49.2427 126.488 49.552C125.73 49.8507 124.893 50 123.976 50H121.096ZM121.576 49.136H123.976C125.01 49.136 125.922 48.9013 126.712 48.432C127.512 47.9627 128.136 47.3227 128.584 46.512C129.042 45.7013 129.272 44.7787 129.272 43.744C129.272 42.7093 129.042 41.792 128.584 40.992C128.136 40.1813 127.512 39.5413 126.712 39.072C125.922 38.6027 125.01 38.368 123.976 38.368H121.576V49.136ZM131.659 50C131.456 50 131.312 49.92 131.227 49.76C131.152 49.6 131.152 49.4507 131.227 49.312L136.075 37.84C136.16 37.616 136.315 37.504 136.539 37.504C136.752 37.504 136.907 37.616 137.003 37.84L141.867 49.312C141.952 49.4613 141.947 49.616 141.851 49.776C141.755 49.9253 141.616 50 141.435 50C141.328 50 141.238 49.9787 141.163 49.936C141.099 49.8827 141.04 49.8027 140.987 49.696L136.283 38.48H136.795L132.107 49.696C132.064 49.8027 132.006 49.8827 131.931 49.936C131.856 49.9787 131.766 50 131.659 50ZM132.843 46.864L133.227 46H139.883L140.251 46.864H132.843Z" fill="#13446B"/>
</svg>
