<svg width="56" height="56" viewBox="0 0 56 56" fill="none" xmlns="http://www.w3.org/2000/svg">
<path d="M52.4014 41.6409C52.6112 41.3996 52.7896 41.1163 52.9366 40.8225C53.8286 39.0389 54.5631 37.1924 55.0669 35.262C55.8224 32.4082 56.1163 29.5021 55.9589 26.5539C55.8854 25.2425 55.665 23.931 55.4656 22.6301C55.3502 21.8747 55.2243 21.1193 55.0039 20.3954C54.6681 19.3147 54.2588 18.2446 53.8391 17.1954C52.8526 14.7404 51.4884 12.5057 49.8408 10.4388C48.5815 8.86508 47.1543 7.45921 45.5907 6.18972C43.6178 4.57401 41.435 3.29404 39.1053 2.27636C37.0905 1.40555 34.9916 0.807529 32.8194 0.419338C30.6051 0.0206566 28.3804 -0.0737572 26.1556 0.0521431C24.3821 0.157059 22.6191 0.461308 20.8876 0.912445C18.6943 1.47899 16.5955 2.30783 14.6121 3.37798C12.5448 4.49009 10.6558 5.854 8.94527 7.45921C6.9304 9.33721 5.21987 11.446 3.82415 13.8171C2.92166 15.3594 2.13459 16.9541 1.59939 18.6643C1.16913 20.0491 0.759862 21.455 0.466027 22.8714C0.224663 24.0464 0.0882515 25.2425 0.035781 26.4385C-0.0796542 28.925 0.0777503 31.3906 0.602456 33.8351C1.37902 37.4127 2.76425 40.7071 4.82109 43.7392C6.63657 46.425 8.86132 48.7122 11.4639 50.6322C13.3948 52.0485 15.4936 53.1711 17.7288 54.0524C19.5653 54.7763 21.4542 55.3114 23.3957 55.6157C25.4315 55.9409 27.4884 56.1193 29.5452 55.9094C30.9619 55.7626 32.3891 55.6786 33.7848 55.3849C35.2645 55.0701 36.7127 54.598 38.1294 54.0734C39.3467 53.6223 40.522 53.0347 41.6764 52.4262C43.4079 51.5135 44.982 50.3489 46.4512 49.0584C48.2772 47.4637 49.8408 45.6591 51.226 43.6867C51.268 43.6343 51.2995 43.5713 51.3205 43.5188C51.331 43.4874 51.3205 43.4454 51.3205 43.33L45.1919 37.056C43.3555 35.2305 41.5295 33.3945 39.693 31.5794C39.4726 31.3591 39.3782 31.1283 39.3782 30.8135C39.3887 29.6489 39.3782 28.4844 39.3887 27.3303C39.3887 27.0051 39.2942 26.7638 39.0529 26.533C36.2509 23.7422 33.47 20.9514 30.6576 18.1606C30.3742 17.8774 30.2798 17.6361 30.4057 17.2269C30.9409 15.4853 29.3983 13.7542 27.6038 14.0165C26.1241 14.2368 25.484 15.3594 25.358 16.3771C25.2321 17.4472 26.0192 18.6433 27.1316 18.958C27.6458 19.1049 28.2544 19 28.8106 18.9475C29.0415 18.9265 29.1884 18.8951 29.3668 19.0734C32.0743 21.7907 34.7818 24.4871 37.4787 27.2149C37.6467 27.3933 37.7726 27.687 37.7831 27.9388C37.8146 29.0719 37.8041 30.2155 37.7936 31.3486C37.7831 31.7368 37.8985 32.0201 38.1819 32.2928C41.7918 35.8915 45.3913 39.4901 49.0013 43.0992C49.4105 43.5084 49.421 43.5084 49.0747 43.9595C47.0809 46.5509 44.7302 48.7227 41.9492 50.4643C39.8399 51.7862 37.5942 52.7829 35.212 53.4544C31.9379 54.3777 28.6007 54.6504 25.2111 54.2937C22.5876 54.0209 20.069 53.381 17.6449 52.3738C15.9553 51.6708 14.3707 50.7895 12.8701 49.7404C10.2046 47.8939 7.95882 45.6277 6.11186 42.9628C4.90504 41.2107 3.8976 39.3327 3.20499 37.3078C2.78523 36.0908 2.36547 34.8528 2.11361 33.5938C1.83027 32.1355 1.66236 30.6457 1.55742 29.1663C1.44199 27.4562 1.52594 25.7356 1.78829 24.0359C1.87225 23.5009 1.97719 22.9763 2.08213 22.4412C2.38646 20.9304 2.8482 19.4511 3.45685 18.0452C4.02354 16.7338 4.72664 15.4748 5.37728 14.1948C5.42975 14.0899 5.52419 14.0165 5.62913 13.8801C5.75506 13.9955 5.8705 14.1004 5.98594 14.2053C9.37553 17.5941 12.7651 20.9934 16.1652 24.3717C16.4171 24.6235 16.5325 24.8858 16.5325 25.2425C16.5115 26.3966 16.5325 27.5401 16.522 28.6942C16.5115 29.03 16.627 29.2608 16.8578 29.4916C19.6493 32.2719 22.4197 35.0626 25.2216 37.8219C25.5365 38.1367 25.6309 38.3885 25.4735 38.8186C25.1587 39.7314 25.6099 40.9379 26.418 41.5254C27.3205 42.1864 28.5063 42.1969 29.4193 41.5569C30.2063 41.0009 30.5946 40.2035 30.5107 39.2698C30.4267 38.2311 29.86 37.4547 28.8316 37.0665C28.2544 36.8462 27.6982 36.8252 27.1316 37.0455C26.8587 37.1504 26.6698 37.098 26.4599 36.8882C23.7525 34.1708 21.045 31.4745 18.3375 28.7467C18.1906 28.5998 18.0961 28.327 18.0961 28.1172C18.0751 26.9316 18.0751 25.7356 18.0856 24.55C18.0856 24.2353 17.9912 24.0045 17.7603 23.7841C14.1189 20.154 10.4879 16.524 6.85695 12.8939C6.46867 12.5057 6.46867 12.5057 6.80448 12.065C8.25266 10.1136 9.96319 8.41394 11.8941 6.94512C13.783 5.50777 15.8294 4.32223 18.0332 3.46191C19.4814 2.89537 20.9715 2.45472 22.5037 2.12947C24.2457 1.76227 26.0087 1.58391 27.7717 1.57342C29.1464 1.56293 30.5317 1.7308 31.9064 1.88817C33.8688 2.11899 35.7577 2.66455 37.5942 3.38847C39.7455 4.22779 41.7498 5.32941 43.6073 6.70382C45.937 8.43493 47.9414 10.4808 49.6099 12.8519C50.9742 14.7928 52.0551 16.8912 52.8316 19.1259C53.1465 20.0386 53.3248 21.0039 53.6082 21.9376C54.3743 24.5081 54.3952 27.152 54.3008 29.7853C54.2693 30.7925 54.0804 31.8102 53.8915 32.7964C53.6921 33.8246 53.4613 34.8633 53.136 35.86C52.7687 37.0141 52.2859 38.1262 51.8347 39.2488C51.6353 39.7419 51.3729 40.2245 51.1316 40.7281L52.4014 41.6409ZM28.9575 16.5659C28.9575 17.143 28.5692 17.5416 28.0131 17.5521C27.4569 17.5626 27.0056 17.1115 26.9951 16.5554C26.9951 15.9889 27.4254 15.5482 27.9816 15.5273C28.5168 15.5273 28.9575 15.9994 28.9575 16.5659ZM28.9575 39.5006C28.9575 40.0566 28.5483 40.4658 27.9921 40.4658C27.4359 40.4658 27.0266 40.0252 27.0371 39.4481C27.0476 38.8606 27.4149 38.4829 28.0026 38.4934C28.6007 38.4934 28.968 38.8711 28.9575 39.5006Z" fill="#0C84C7"/>
<path d="M47.3327 48.303C47.3327 48.303 52.9051 43.3195 54.8675 35.9859L53.4088 35.262C53.4088 35.262 51.8242 41.7668 46.2728 47.128L47.3327 48.303Z" fill="#0C84C7"/>
</svg>
